<svg xmlns="http://www.w3.org/2000/svg" width="1024" height="1024" viewBox="0 0 512 512"><path fill="#08171c" d="M0 0h512v512H0V0Z"/><path fill="#0074de" d="m466.188 131 1.812 3 2.5 3.5c6.243 11.237 7.358 23.082 8.793 35.617.557 4.637 1.225 9.171 2.082 13.758 5.864 31.976 9.118 64.131 11.09 96.555.633 10.34 1.364 20.674 2.098 31.007l.384 5.502.37 5.182.326 4.607c.344 4.11.838 8.18 1.357 12.272.677 10.96-3.002 18.838-12.164 25.195-30.955 17.26-67.824 19.118-102.441 22.473-10.433 1.02-20.854 2.155-31.27 3.332-6.08.679-12.16 1.302-18.25 1.875-23.963 2.254-47.916 4.56-71.8 7.535-6.353.739-12.695 1.17-19.075 1.59l-4 1c-2.519.177-5.04.319-7.563.438-4.784.27-9.209.702-13.937 1.562-4.36.793-8.29 1.216-12.688 1.438-7.872.416-15.637 1.377-23.447 2.403-7.194.93-14.384 1.64-21.615 2.221A239.558 239.558 0 0 0 136 416a218.415 218.415 0 0 1-17.625 1.313l-3.04.113c-7.699-.983-14.488-5.5-21.085-9.363l-4.36-2.528c-16.784-10.937-17.948-25.618-19.73-44.18l-1.033-10.36a7631.168 7631.168 0 0 1-1.593-16.27c-.51-5.249-1.034-10.497-1.561-15.745l-.465-4.93-.465-4.573-.392-4.02c-.53-3.91-.53-3.91-3.651-8.457-.86-4.458-1.188-8.913-1.465-13.44l-.233-3.749-.24-4.018-.257-4.222c-.18-2.957-.358-5.913-.534-8.87-.266-4.432-.538-8.864-.81-13.297-.434-7.125-.844-14.25-1.236-21.378-.147-2.627-.299-5.254-.457-7.88-.211-3.531-.4-7.063-.58-10.595l-.198-3.08c-.454-9.83 1.098-22.165 9.584-28.346 10.548-6.483 20.935-8.573 33.121-9.441l3.955-.31c4.158-.322 8.316-.63 12.475-.936l8.215-.631c5.348-.412 10.696-.82 16.044-1.225 7.12-.542 14.24-1.095 21.358-1.672l5.738-.46c4.47-.334 4.47-.334 8.52-1.45 9.474-.35 9.474-.35 13 2 11.212.862 22.584-.371 33.75-1.375l4.835-.418c7.749-.677 15.491-1.397 23.227-2.207a762.307 762.307 0 0 1 19.883-1.754l5.337-.404c3.56-.266 7.12-.53 10.68-.79l4.972-.368 4.486-.327c4.047-.31 4.047-.31 8.83-1.357 2.394-.172 4.79-.316 7.188-.438 11.4-.668 11.4-.668 21.8-5.003 8.29-4.22 17.774-4.07 26.887-4.746l5.927-.495c8.661-.71 17.324-1.344 25.999-1.869l3.846-.24c2.279-.134 4.558-.253 6.839-.35 6.706-.376 11.492-1.987 17.514-4.859 10.851-3.038 21.864-5.308 33-7 10.282-2.57 10.282-2.57 14.188 1Z"/><path fill="#01f6c7" d="M291 180v2l3.688 1c11.177 4.208 19.903 13.29 28.812 21.047 4.368 3.686 8.924 7.07 13.563 10.406 9.44 8.186 10.216 15.935 11.25 27.86l.481 4.879c.936 9.765 1.707 19.526 2.03 29.331.105 3.393.105 3.393.66 6.368 2.509 15.125.362 26.155-7.484 39.109a9757.76 9757.76 0 0 0-4.375 8.063c-4.504 7.91-9.468 15.441-14.625 22.937l-2.938 4.688c-6.726 7.275-18.025 8.33-27.437 9.875l-3.755.635c-11.735 1.916-23.515 3.134-35.35 4.224-5.063.203-5.063.203-7.52 1.578-5.37.686-10.743 1.298-16.123 1.895-5.363.058-5.363.058-9.877 2.105-4.91.327-16.424.576-20-3-2.017-.3-4.039-.564-6.063-.813-5.7-.838-9.871-2.363-14.937-5.187-3.33-1.34-6.664-2.674-10-4-21.45-9.572-36.3-36.732-43-58l-1.688-3.813c-4.07-9.886-4.365-17.885-.449-27.738 1.452-4.406 2.236-8.825 3.075-13.387 5.476-27.817 25.77-42.295 47.976-58.14 8.769-6.27 17.062-13.125 25.414-19.934L206 181l2.234-2.108c3.597-2.46 6.364-2.707 10.688-3.158l4.762-.51 5.066-.474 5.176-.504c42.57-3.915 42.57-3.915 57.074 5.754Z"/><path fill="#0a4eac" d="M512 354v158H21c3.286-3.833 6.593-7.649 10-11.375 6.788-7.618 12.096-15.549 14.438-25.5 4.76-19.424 21.606-23.351 39.062-29 9.656-2.759 18.67-3.091 28.5-1.125 2.31.14 4.624.22 6.938.25l3.59.078c3.821-.361 6.118-1.53 9.472-3.328 11.853-1.374 19.402 5.765 28 13l3.172 2.645c5.027 4.218 9.995 8.477 14.828 12.918 21.953 19.886 42.823 28.792 72.219 19.41L254 489l4.688-1.188c17.736-6.05 27.993-19.534 32.539-37.48 1.185-6.642 1.364-13.26 1.5-19.996C293 426 293 426 295 421c4.735 0 7.98 1.28 12.438 2.875 11.896 4 22.198 5.278 34.75 5.375l3.06.029c9.521-.042 17.637-1.285 26.065-5.779l4.128-2.137L380 419c25.43-12.744 44.953-15.687 72.989-9.691 9.09 1.92 14.239 1.97 22.011-3.309 3.943-6.572 5.317-13.314 7.207-20.703 2.582-7.628 6.493-13.67 12.606-18.922l2.578-2.227c3.808-3.135 7.685-6.158 11.609-9.148 1-1 1-1 3-1Z"/><path fill="#01f6c7" d="m466.188 131 1.812 3 2.5 3.5c6.243 11.237 7.358 23.082 8.793 35.617.557 4.637 1.225 9.171 2.082 13.758 5.864 31.976 9.118 64.131 11.09 96.555.633 10.34 1.364 20.674 2.098 31.007l.384 5.502.37 5.182.326 4.607c.344 4.11.838 8.18 1.357 12.272.677 10.96-3.002 18.838-12.164 25.195-15.13 8.436-30.905 12.63-47.836 15.805 2.17-2.92 4.202-5.16 7.063-7.438C457.993 363.41 448.906 326.29 447 310l-1-5c-.21-2.095-.387-4.193-.54-6.293l-.284-3.798-.297-4.096-.318-4.267c-.336-4.515-.667-9.03-.998-13.546-1.453-35.343-1.453-35.343-7-70.063-1.166-4.787-1.853-9.408-2.313-14.312-1.727-14.878-6.377-35.752-17.25-46.625l-5-1c9.216-6.912 22.408-8.393 33.668-9.543 18.277-2.507 18.277-2.507 20.52-.457Z"/><path fill="#0074de" d="M291 180v2l3.688 1c11.177 4.208 19.903 13.29 28.812 21.047 4.368 3.686 8.924 7.07 13.563 10.406 9.44 8.186 10.216 15.935 11.25 27.86l.481 4.879c.936 9.765 1.707 19.526 2.03 29.331.105 3.393.105 3.393.66 6.368 2.509 15.125.362 26.155-7.484 39.109a9757.76 9757.76 0 0 0-4.375 8.063c-4.504 7.91-9.468 15.441-14.625 22.937l-2.938 4.688c-6.726 7.275-18.025 8.33-27.437 9.875l-3.755.635c-11.735 1.916-23.515 3.134-35.35 4.224-5.063.203-5.063.203-7.52 1.578-3.333.04-6.667.043-10 0 4.09-3.068 7.806-4.754 12.5-6.75 13.495-5.906 23.955-11.925 33.5-23.25l2.016-2.39C309.242 313.417 308.295 276.542 297 243c-10.423-22.255-29.214-40.319-53-47l-5.25-2.313c-5.29-1.879-7.294-1.56-12.75-.687l-5.941.832c-11.025 1.615-21.813 3.265-32.496 6.531C185 201 185 201 183 200c7.996-6.977 16.086-13.734 24.55-20.137 2.275-1.643 2.275-1.643 3.45-2.863 61.634-9.244 61.634-9.244 80 3Z"/><path fill="#fac910" d="m285.643 101.741 4.166-.019 4.507.012 4.614-.005c3.222-.002 6.444.002 9.666.01 4.95.011 9.898 0 14.847-.012 3.125 0 6.25.003 9.373.007l4.514-.012 4.157.02 3.673.004C348 102 348 102 350 104c1.788 4.264 3 7.35 3 12-3.664 1.676-3.664 1.676-8.625 3.312-7.394 2.564-14.242 5.447-21.168 9.067-3.105 1.57-6.225 2.898-9.457 4.183-7.097 2.875-13.477 6.751-19.625 11.313-5.31 2.202-7.895 2.307-13.535 2.168-12.74-.136-25.41.517-38.13 1.184-4.046.212-8.094.416-12.142.619l-7.822.4-3.615.183c-6.98.369-13.923.894-20.881 1.571l1 3c3.795.116 7.407.033 11.187-.188l3.526-.172c9.867-.503 19.731-1.13 29.585-1.851 6.794-.495 13.569-.872 20.378-1.082 15.322-.543 27.074-1.254 40.324-9.707h3v-2a226.692 226.692 0 0 1 10.312-4.813l2.9-1.29c1.947-.867 3.895-1.73 5.844-2.588a691.787 691.787 0 0 0 8.756-3.985c17.119-7.67 17.119-7.67 26.188-5.324l4 .875c4.891 3.465 3.458 7.567 3 13.125l2.969-.469c5.612-.74 11.224-.965 16.875-1.25L392 132l3.516-.215c4.628-1.043 7.796-3.226 11.734-5.848C414.701 121 414.701 121 418 121v2l3.84-.117c5.45.124 10.38.927 15.722 1.992l5.38 1.055c4.383.927 8.72 1.946 13.058 3.07-4.098 2.05-7.625 2.607-12.11 3.309-4.898.87-9.729 1.95-14.578 3.066-1.736.4-3.472.8-5.261 1.21-5.045 1.258-5.045 1.258-9.457 3.517-5.503 2.274-10.542 2.647-16.407 2.898-2.462.146-4.924.296-7.386.45l-4.158.25c-9.265.598-18.516 1.341-27.768 2.112l-5.769.428c-9.583.815-16.872 1.72-25.106 6.76-6.899 1.84-13.677 2.312-20.771 2.706-4.057.282-8.054.726-12.088 1.235-9.095 1.094-18.195 1.822-27.329 2.496-13.273 1.01-26.519 2.153-39.756 3.56-11.236 1.182-22.501 2.134-33.806 2.19l-3.984.043C187 165 187 165 184 163c-4.943-.188-9.192-.202-14 1-3.012.323-6.029.605-9.047.867l-5.634.49-6.069.518-6.202.539c-10.21.88-20.419 1.701-30.642 2.41l-5.45.382c-3.394.232-6.79.455-10.185.667-10.145.694-19.561 1.588-28.271 7.314C64 180 64 180 62 180c5.465-10.93 26.5-21.016 38-24 4.565-.26 8.33-.177 12.758.996 9.716 2.3 20.137 2.263 29.242-1.996 3.83-1.2 7.668-2.37 11.512-3.523 3.809-1.613 5.775-3.398 8.488-6.477 2.776-2.776 4.382-2.18 8.258-2.105 14.115.606 14.115.606 26.23-5.043 1.945-3.905 3.282-7.673 4.512-11.852 9.85-16.212 20.516-23.759 39.447-23.576l4.74.138 4.87.057c11.746.184 11.746.184 12.943 1.381 2.122.126 4.25.176 6.375.187l3.523.043c4.738-.352 7.632-2.482 12.745-2.489Z"/><path fill="#08171c" d="M260 242a248.255 248.255 0 0 1 4 6l2.691 4.094 2.872 4.406 2.878 4.406c9.572 15.314 8.251 33.09 1.059 49.344-7.105 13.004-19.768 19.18-32.5 25.75l-4.469 2.371c-16.266 8.45-16.266 8.45-26.344 2.942-4.479-2.382-8.686-4.503-13.437-6.313-14.415-6.07-26.2-16.724-30.75-32-.411-4.922-.373-9.814-.313-14.75l-.01-3.922c.157-28.162.157-28.162 9.323-37.328l2.5-5c4.684-9.368 10.11-10.476 19.5-13l2.969-.918c21.828-6.118 44.663-3.337 60.031 13.918Z"/><path fill="#fb696a" d="M512 354c.37 8.88.643 17.756.824 26.642.075 3.022.178 6.044.308 9.064.181 4.343.267 8.679.333 13.024l.234 4.098c.009 9.18.009 9.18-4.984 12.082-3.88 1.285-7.73 2.195-11.715 3.09-4.292 2.197-4.292 2.197-7.688 4.625-1.117.755-2.235 1.51-3.386 2.29A356.027 356.027 0 0 0 479 434h-2v2c-19.409 18.095-40.056 29.644-67 23v-2c-18.116.743-32.098 3.906-48.25 12.125-13.43 6.799-26.646 10.64-40.54 2.176C303.736 459.048 294.619 444.5 296 423l1-2c5.533 1.181 10.683 2.477 15.938 4.563 9.583 3.39 19.18 3.63 29.25 3.687l3.058.028c9.522-.04 17.64-1.283 26.067-5.778l4.128-2.137L380 419c25.43-12.744 44.953-15.687 72.989-9.691 9.09 1.92 14.239 1.97 22.011-3.309 3.943-6.572 5.317-13.314 7.207-20.703 2.582-7.628 6.493-13.67 12.606-18.922l2.578-2.227c3.808-3.135 7.685-6.158 11.609-9.148 1-1 1-1 3-1Z"/><path fill="#0a4eac" d="M25 0h55l-.438 13.688-.13 4.291-.116 3.408-.11 3.475C79 28 79 28 78 33a745.78 745.78 0 0 0-.684 13.094l-.373 8.004c-.19 4.177-.378 8.353-.565 12.53-.651 14.436-1.41 28.79-2.911 43.166-.44 4.903-.72 9.781-.934 14.698-.194 4.428-.436 8.852-.679 13.278a374.412 374.412 0 0 0-.274 6.764c-.772 23.198-.772 23.198-12.195 30.834-4.535 2.186-7.793 2.81-12.822 2.445l-5.106-.293L36 177c-2.058-.165-4.117-.328-6.176-.488A650.517 650.517 0 0 1 14 175c-.254-12.668.622-25.188 1.595-37.806.476-6.167.933-12.335 1.393-18.503l.274-3.652c.672-9.009 1.269-18.02 1.8-27.039.779-13.11 1.792-26.197 2.826-39.29C23.152 32.486 24.093 16.25 25 0Z"/><path fill="#151e55" d="M254.406 265.156c5.35 9.545 5.897 21.78.531 31.344-4.643 6.937-11.655 16.5-20.937 16.5v2c-10.692.456-19.022-.08-29-4l-5-1v-2l-3-1v-2h-2c-7.292-7.049-8.963-17.367-8-27 3.736-13.967 11.856-23.136 25-29 17.786-4.743 32.151 1.866 42.406 16.156Z"/><path fill="#692e3b" d="M341 219c8.264 4.132 10.695 6.92 11.39 16.29l.462 5.542.398 5.793c.293 3.763.59 7.526.89 11.29.14 1.767.278 3.535.42 5.356.498 5.354 1.38 10.462 2.44 15.729.364 3.038.7 6.08 1 9.125.493 4.714 1.058 9.127 2.125 13.75 2.058 9.704 1.704 16.138-3.52 24.457-1.88 3.125-3.191 6.302-4.605 9.668-1.956 4.302-3.949 8.588-5.938 12.875l-3.152 6.805-1.513 3.264a441.262 441.262 0 0 0-3.624 8.2c-1.82 3.957-3.489 6.052-6.773 8.856l-2.313 2.188c-9.773 6.59-25.1 4.993-36.5 5l-3.56.037c-5.922.01-10.996-.186-16.627-2.225l-3.316-1.035c-2.168-.686-4.334-1.374-6.5-2.063-5.83-1.652-11.52-2.118-17.559-2.464l-4.336-.254L237 375v-1l5.375-.438c5.153-.178 5.153-.178 7.625-1.562 2.296-.306 4.598-.563 6.902-.797l4.35-.459 4.685-.494c11.478-1.267 22.886-2.69 34.25-4.75l3.283-.573c13.086-2.483 17.977-6.86 24.78-17.802l2.22-3.485c14.949-22.295 14.949-22.295 20.717-47.577l-.019-5.278c-.133-3.78-.55-7.084-1.168-10.785a239.564 239.564 0 0 1-.43-6.27l-.216-3.658-.229-3.885c-.645-10.083-1.393-20.143-2.5-30.187l-.308-3.105c-.661-5.622-1.7-9.488-5.317-13.895Z"/><path fill="#151e55" d="M112 195c5.662 6.778 4.37 13.612 4 22l-.063 3.805c-.45 12.84-4.853 21.44-16.124 28.07C89.99 251.773 82.53 250.533 74 245c-8.34-9.554-10.487-17.469-9-30 6.801-19.033 28.91-30.416 47-20Z"/><path fill="#fac910" d="M414 162c4.124 6.918 4.225 13.87 1.313 21.313-2.163 3.447-4.288 5.989-7.313 8.687l-1 1c-11.63 1.34-23.363 2.144-35.063 2.5l-4.722.156C359.59 194.47 354.806 188.96 352 182c-.864-8.227-.355-14.417 5.398-20.727 5.45-3.877 9.754-4.441 16.227-4.648l3.213-.179c3.053-.168 6.107-.308 9.162-.446 2.688-.22 5.376-.447 8.063-.688 9.27-.487 13.32-.184 19.937 6.688Z"/><path fill="#08171c" d="m206 229-2.594 1.164c-3.767 2.03-6.678 4.406-9.906 7.211l-3.281 2.836L187 243l-3.14 2.52c-6.637 5.757-11.532 12.685-12.86 21.48h2v-3h2l1-5c2.941-3.113 2.941-3.113 6.563-6.313l3.628-3.238L189 247c0 4.62-3.125 6.435-6.094 9.66-2.423 2.975-3.2 5.594-3.906 9.34l-1.02 2.57c-5.214 18.24-.26 35.63 12.415 48.946 7.516 7.15 15.443 11.226 25.605 13.484v1a220.523 220.523 0 0 1-7 2c4.438.109 8.874.188 13.313.25l3.767.102c8.302.087 14.276-1.114 21.92-4.352l4-1c-3.97 3.454-8.09 5.7-12.813 8l-4.082 2-4.105 2-4.074 2.313c-6.882 2.958-11.42.747-17.738-2.625-4.102-2.14-7.972-3.985-12.313-5.625-14.46-6.118-26.301-16.708-30.875-32.063-.411-4.922-.373-9.814-.313-14.75l-.01-3.922c.157-28.162.157-28.162 9.323-37.328l2.5-5c3.282-6.564 6.03-9.231 12.938-11.188l3.37-.98c7.598-1.98 7.598-1.98 12.192-.832Z"/><path fill="#08171c" d="m220.688 225.813 5.761-.043c16.868.7 28.402 8.103 37.551 22.23l2.691 4.094 2.872 4.406 2.878 4.406c9.572 15.314 8.251 33.09 1.059 49.344-5.368 10.05-14.716 17.355-25.5 20.75l-4.762 2.05c-7.118 2.6-13.932 2.395-21.425 2.2l-4.042-.055c-3.257-.046-6.514-.118-9.771-.195 3.038-4.557 6.002-3.37 11.313-3.438 13.949-.507 24.204-3.326 35.062-12.375C257 317 257 317 259 317l1-3h2l2-4 2.375-2.875c7.282-11.443 7.762-24.037 5.625-37.125v-5h-2l-2-5h-2l-1.563-2.375C251.903 238.982 235.945 233.736 214 235c-14.696 2.792-29.134 14.178-38 26l-1 3h-2v3h-2c1.106-16.5 18.619-30.029 32-38h3v-2c4.99-1.248 9.541-1.17 14.688-1.188Z"/><path fill="#692e3b" d="M94 207c8.555 4.971 13.396 10.835 14.563 20.813-.893 8.23-4.992 11.681-11.938 15.75-7.635 2.373-14.953 1.497-21.25-3.75C69.377 232.71 68.845 224.999 70 216c5.556-9.366 13.983-10.404 24-9Z"/><path fill="#692e3b" d="m140 137 4.633.34c7.234.71 13.084 1.733 19.367 5.66-3.916 6.527-7.242 8.287-14.25 10.5-4.118 1.312-8.075 2.637-12.063 4.313-4.809 1.548-8.67 1.715-13.687 1.187a262.496 262.496 0 0 1-4-5c-6.008-1.028-11.914-1.113-18-1 1.9-2.415 3.934-4.724 6-7l2.11-2.469c8.703-8.76 18.228-7.481 29.89-6.531Z"/><path fill="#01f6c7" d="M375 0h25c.125 13.875.125 13.875-1 15-6.578 0-7.665-2.337-12-7l-2-1 .048 4.634c.054 5.664.088 11.327.117 16.99.015 2.454.035 4.907.061 7.36.037 3.522.054 7.044.067 10.567.015 1.1.03 2.2.047 3.333.002 7.774.002 7.774-3.34 11.116-5-1-5-1-7-4a258.585 258.585 0 0 1-.195-12.762l.008-3.82c.011-4.036.037-8.07.062-12.105.01-2.733.02-5.465.027-8.198.02-6.705.06-13.41.098-20.115Z"/><path fill="#fac910" d="M276.55 213.059C289.43 225.137 298.78 240.706 302 258l.852 4.559c1.704 10.332 2.43 20.356 2.46 30.816l.017 3.475c-.075 8.783-1.771 15.226-5.329 23.15-1-4-1-4-.086-6.918 4.15-15.599 1.746-34.93-2.914-50.082l-1.32-4.309c-3.326-10.04-7.636-19.405-12.68-28.691l-2.688-5c-4.63-5.591-10.01-8.524-16.312-12l-4.156-2.395c-7.72-4.475-7.72-4.475-15.82-8.18L241 201v-3c12.493-4.164 26.509 7.761 35.55 15.059Z"/><path fill="#08171c" d="M382.125 205.063c6.07 4.09 8.649 7.108 9.563 14.5-1.032 8.154-3.806 10.308-10.688 14.437-11.733.933-11.733.933-16-4-3.482-5.804-4.096-10.422-3-17 5.387-7.9 10.648-11.16 20.125-7.938Z"/><path fill="#151e55" d="m352 117-1 1 2 2-5.125 1.375c-8.552 2.613-16.554 6.42-24.64 10.188C309.41 138 309.41 138 307 138v2c-14.601 9.445-28.22 10.51-45.063 10.938-2.246.082-4.493.169-6.74.26-3.359.134-6.718.266-10.078.382-9.146.325-18.249.972-27.366 1.763-12.796 1.083-12.796 1.083-18.753.657l-1-4c4.027-2.014 9.104-1.633 13.563-1.938l3.681-.255c11.246-.752 22.5-1.361 33.756-1.932l5.08-.265a382.297 382.297 0 0 1 30.528-.293c7.401-.534 12.394-4.26 18.392-8.317 9.724-5.263 19.853-9.63 30-14l5-2.25c11.467-5.017 11.467-5.017 14-3.75Z"/><path fill="#01f6c7" d="m341.625 92.875 2.352 2.617C346 98 346 98 348 102h-63c2.997-2.997 6.401-3.516 10.438-4.75l5.171-1.594L306 94c4.912-1.563 9.821-3.133 14.73-4.703 13.959-4.24 13.959-4.24 20.895 3.578Z"/><path fill="#08171c" d="M395.09 167.781C398 168 398 168 401 171c.577 8.423.577 8.423-2 11-4.768 1.192-9.337 1.496-14.234 1.777-2.431.144-4.86.34-7.282.602-3.234.246-3.234.246-8.484-.379-2.224-5.241-2-9.3-2-15 3.854-.168 7.708-.335 11.563-.5l3.29-.145c6.62-.263 6.62-.263 13.237-.574Z"/><path fill="#08171c" d="M336 335c1.91 3.822-1.845 8.432-3.625 12.063l-1.332 2.779c-8.69 17.98-8.69 17.98-22.734 19.56-4.34.538-4.34.538-8.664 1.598-5.138 1.106-10.16 1.616-15.395 2.063-5.187.447-10.144.916-15.25 1.937-2.495.08-4.992.108-7.488.098l-4.326-.01-4.498-.026-4.557-.013A4681.6 4681.6 0 0 1 237 375v-1l5.375-.438c5.153-.178 5.153-.178 7.625-1.562 2.296-.306 4.598-.563 6.902-.797l4.35-.459 4.685-.494c11.478-1.267 22.886-2.69 34.25-4.75l3.283-.573c13.285-2.52 18.09-7.098 25.03-18.177l2.203-3.414A817.621 817.621 0 0 0 336 335Z"/><path fill="#151e55" d="M397 113c.205 3.162.314 6.331.375 9.5l.148 5.281L397 132c-4.809.962-8.925 1.1-13.813 1.063l-4.644-.028L375 133l-.375-4.875c-.074-4.984-.074-4.984-2.625-7.125 18.744-14.256 18.744-14.256 25-8Z"/><path fill="#08171c" d="M227 272c6.716 4.03 8 6.15 8 14-5.386 7.513-8.753 7.61-18 7-5.2-3.328-6.093-6.956-6-13 3.933-7.585 7.675-8.562 16-8Z"/><path fill="#fac910" d="M512 503v9h-74v-1a16539.35 16539.35 0 0 0 24.021-2.572c2.593-.279 5.185-.556 7.778-.832a6146.3 6146.3 0 0 0 10.764-1.159l3.288-.346c5.087-.556 10.103-1.226 15.133-2.173 4.487-.821 8.473-1.09 13.016-.918Z"/><path fill="#01f6c7" d="M279 90c-1 5-1 5-4 6.688C271 98 271 98 266.125 99c-4.414.453-4.414.453-5.125 4-3.143.34-3.143.34-7.316.293l-4.502-.03-4.744-.076-4.756-.04A1749.12 1749.12 0 0 1 228 103c5.398-3.599 11.122-5.427 17.375-7 4.236-1.092 8.346-2.24 12.5-3.625C273.4 87.2 273.4 87.2 279 90Z"/><path fill="#f61d51" d="M174 317c6.16 3.08 11.65 7.164 17.324 11.055 8.683 5.469 15.303 7.566 25.551 7.32l3.066-.004c10.595-.122 19.34-1.967 29.059-6.371l3 1c-7.187 4.264-14.446 8.354-21.938 12.063l-3.59 1.785c-6.634 2.201-11.354.005-17.285-3.16-4.1-2.14-7.971-3.985-12.312-5.625C188.22 331.4 180.156 326.183 174 319v-2Z"/><path fill="#08171c" d="M112 195c4.074 4.77 4.453 8.196 4.25 14.375l-.11 4.336L116 217h-1l-.75-3.188C111.77 206.25 105.966 203.279 99 200c-5.715-.6-5.715-.6-11.563-.313l-5.94.137L77 200c9.748-10.078 22.56-12.162 35-5Z"/><path fill="#08171c" d="M267 312c1.44 4.318-.298 5.118-3.125 8.5l-2.383 2.906c-3.95 4.111-8.192 5.926-13.492 7.594l-4.762 2.05c-7.118 2.6-13.932 2.395-21.425 2.2l-4.042-.055c-3.257-.046-6.514-.118-9.771-.195 3.038-4.557 6.002-3.37 11.313-3.438 13.949-.507 24.204-3.326 35.062-12.375C257 317 257 317 259 317l1-3c3.563-1.188 3.563-1.188 7-2Z"/><path fill="#01f6c7" d="M283 228c2 0 2 0 4.496 3.945.97 1.71 1.941 3.419 2.942 5.18l2.933 5.133c3.375 6.088 5.895 11.009 7.192 17.867.79 4.152 1.528 7.058 3.437 10.875 1.287 7.143 1.184 14.329 1.188 21.563l.037 3.615c.015 8.96-1.545 15.625-5.225 23.822-1-4-1-4-.086-6.918 4.15-15.599 1.746-34.93-2.914-50.082l-1.32-4.309c-2.965-8.95-6.753-17.253-11.14-25.593C283 230 283 230 283 228Z"/><path fill="#08171c" d="M341 219c8.16 4.08 10.69 6.868 11.46 16.113l.49 5.475.425 5.725.496 5.595c2.144 25.445 2.144 25.445 1.129 32.092l-4 2a98.787 98.787 0 0 1-1.43-12.27l-.216-3.658-.229-3.885c-.645-10.083-1.393-20.143-2.5-30.187l-.308-3.105c-.661-5.622-1.7-9.488-5.317-13.895Z"/><path fill="#0074de" d="M120.875 358.5c3.062 3.603 2.761 5.903 2.125 10.5-3.632 5.69-5.084 6-12 6-3.93-2.733-4.872-4.256-5.688-9 1.391-8.092 7.985-11.453 15.563-7.5Z"/><path fill="#01f6c7" d="M184 0h8c.054 4.458.094 8.916.125 13.375.017 1.271.034 2.542.05 3.852l.02 3.671.032 3.396C192 27 192 27 190 29c-5-1-5-1-6-2-.088-2-.107-4.002-.098-6.004l.01-3.682.025-3.877.014-3.888c.012-3.183.03-6.366.049-9.549Z"/><path fill="#0a4eac" d="m206 229-2.594 1.164c-3.767 2.03-6.678 4.406-9.906 7.211l-3.281 2.836L187 243l-3.242 2.64c-2.928 2.346-2.928 2.346-5.383 5.735L176 254l-4-1c0-3 0-3 3-6l2.438-4.938c3.33-6.578 6.055-9.282 13-11.25l3.37-.98c7.598-1.98 7.598-1.98 12.192-.832Z"/><path fill="#01f6c7" d="M397 114c8.094-.506 12.35-.173 19 5l1 2c-2.955 1.839-5.914 3.67-8.875 5.5l-4.992 3.094C399 132 399 132 397 132v-18Z"/><path fill="#151e55" d="m352 117-1 1 2 2-5.125 1.375c-8.552 2.613-16.554 6.42-24.64 10.188C309.41 138 309.41 138 307 138v2c-2.909 1.516-5.88 2.914-8.875 4.25l-4.992 2.266L289 148l-2-2a450.399 450.399 0 0 1 46-23l5-2.25c11.467-5.017 11.467-5.017 14-3.75Z"/><path fill="#151e55" d="m171 251 1 2 4 2-1.875 3.188c-7.982 14.32-6.767 32.51-2.125 47.812l3 5v6c-3.54 0-4.332-3.17-6-6-3.667-7.512-3.413-14.58-3.313-22.75l-.01-3.922c.065-11.67 1.713-22.171 5.323-33.328Z"/><path fill="#01f6c7" d="M277 215c5.092 3.853 8.484 8.084 12.125 13.313l3.07 4.363c6.998 10.79 10.462 21.393 9.805 34.324h-1l-.516-2.945C297.776 248.64 289.938 235.012 280 223c-3-5.464-3-5.464-3-8Z"/><path fill="#08171c" d="M251 300c1 3 1 3-2.375 7.375C239.032 317.709 228.414 318.941 215 318c-5.877-1.808-10.49-3.79-15-8 4.903-1.226 5.677-.289 10 2 5.352 1.817 10.303 2.363 15.938 2.625l4.59.227L234 315v-2c2.717-1.425 5.434-2.849 8.152-4.27 3.781-2.297 6.234-5.197 8.848-8.73Z"/><path fill="#0074de" d="M207 337h29c-3.602 5.402-10.335 7.955-16.688 8.063-10.777-3.457-10.777-3.457-12.312-8.063Z"/><path fill="#692e3b" d="m396 112 1 4-4 2-1 4c-3.055.426-3.055.426-6.875.313l-3.805-.075C378 122 378 122 375 121c4.088-8.177 12.584-9 21-9Z"/><path fill="#01f6c7" d="M283 228c2 0 2 0 4.496 3.945.97 1.71 1.941 3.419 2.942 5.18l2.933 5.133C301.88 257.605 301.88 257.605 300 267l-2 1-.848-3.156c-3.425-12.246-7.59-23.907-14.152-34.844v-2Z"/><path fill="#692e3b" d="M282 176c-4 1-4 1-7 0-12.976-.52-25.77.177-38.687 1.284-8.453.707-16.83.947-25.313.716v-1c57.733-6.857 57.733-6.857 71-1Z"/><path fill="#08171c" d="M163 456c5.128 2.051 8.056 4.657 12.059 8.367 6.378 5.71 13.285 10.81 20.058 16.04C202 485.786 202 485.786 202 488c-11.298-4.52-20.37-14.072-29.133-22.32-2.337-2.184-4.748-4.289-7.18-6.368C163 457 163 457 163 456Z"/><path fill="#151e55" d="m220.688 225.813 5.761-.043c10.153.421 16.981 3.088 25.551 8.23l1 2c-5-1-5-1-8.313-2.938-8.257-4.618-16.49-4.313-25.687-4.187l-3.793.027c-3.07.024-6.138.06-9.207.098v-2c4.99-1.248 9.541-1.17 14.688-1.188Z"/><path fill="#01f6c7" d="m475 508 1 4h-38v-1c4.479-.506 8.958-1.005 13.438-1.5l3.818-.434c14.352-1.573 14.352-1.573 19.744-1.066Z"/><path fill="#692e3b" d="m352 117-1 1 2 2c-.81.23-1.622.461-2.457.7-7.533 2.218-14.434 4.976-21.543 8.3h-2v-2l-2-1c2.666-1.106 5.333-2.21 8-3.313l4.5-1.863c12.232-4.958 12.232-4.958 14.5-3.824Z"/><path fill="#01f6c7" d="M374 122c2.352 2.352 1.036 8.864 1 12h-7c-.138-12-.138-12 6-12Z"/><path fill="#151e55" d="M157 149v2c-2.34.929-4.725 1.742-7.125 2.5l-4.008 1.281L142 156l-3.117 1.156C136 158 136 158 130 158c1.792-3.585 5.987-4.213 9.563-5.625l4.753-1.914c4.545-1.418 7.965-1.753 12.684-1.461Z"/><path fill="#08171c" d="M396 126h1v6c-4.809.962-8.925 1.1-13.813 1.063l-4.644-.028L375 133v-5l1 2c3.167.062 6.337-.026 9.5-.188l5.281-.23L395 129l1-3Z"/><path fill="#0a4eac" d="M252 330c-12.659 11.061-27.41 8.332-43 7v-1l3.988-.148c9.151-.39 32.175-8.131 39.012-5.852Z"/><path fill="#151e55" d="M82 206c11.508-.873 16.687.687 25 9 2.782 5.563 2.135 9.804 2 16h-1l-.813-5.125C105.343 216.746 101.502 213.001 94 208c-2.968-.46-2.968-.46-6.188-.625L82 207v-1Z"/></svg>